#define popdown_width 10
#define popdown_height 8
static char popdown_bits[] = {
   0xff, 0x03, 0x03, 0x03, 0x86, 0x01, 0xcc, 0x00, 0x78, 0x00, 0x30, 0x00,
   0x00, 0x00, 0xff, 0x03};
