#define winsize_width 16
#define winsize_height 16
static char winsize_bits[] = {
   0xf8, 0x1f, 0x08, 0x10, 0x08, 0x10, 0xf8, 0x1f, 0x20, 0x04, 0x20, 0x0e,
   0x70, 0x04, 0x20, 0x04, 0xf8, 0x1f, 0x18, 0x10, 0x08, 0x10, 0x08, 0x10,
   0x08, 0x10, 0x08, 0x10, 0x08, 0x10, 0xf8, 0x1f};
